<svg width="48" height="48" viewBox="0 0 48 48" fill="none" xmlns="http://www.w3.org/2000/svg">
  <rect x="4" y="4" width="40" height="40" rx="12" fill="#010101"/>
  <path d="M31.8 16.6C31.1 16.2 30.3 16 29.4 16C28.6 16 27.9 16.2 27.3 16.5V21.6C27.9 21.4 28.4 21.3 29 21.3C29.8 21.3 30.6 21.5 31.3 21.8V26.6C31 26.5 30.6 26.4 30.2 26.4C28.3 26.4 26.8 27.9 26.8 29.8C26.8 31.6 28.3 33.2 30.2 33.2C32 33.2 33.6 31.7 33.6 29.8V22.7C34.8 23.2 36.3 23.4 37.8 23.4V18.7C36.7 18.4 35.6 18.2 34.5 18.2C33.8 18.2 33.2 18.3 32.6 18.4V18.5C32.1 18.3 31.5 18.2 30.9 18.2C30.8 18.2 30.8 18.2 30.7 18.2C30.3 18.2 29.9 18.3 29.4 18.4V18.5Z" fill="url(#tikGrad)"/>
  <defs>
    <linearGradient id="tikGrad" x1="27" y1="14" x2="36" y2="34" gradientUnits="userSpaceOnUse">
      <stop stop-color="#25F4EE"/>
      <stop offset="0.33" stop-color="#25F4EE"/>
      <stop offset="0.66" stop-color="#FE2C55"/>
      <stop offset="1" stop-color="#FAD000"/>
    </linearGradient>
  </defs>
</svg>
